<svg xmlns="http://www.w3.org/2000/svg" viewBox="0 0 256 256"><path fill="none" d="M0 0h256v256H0z"/><path d="m131.84 25 88 48.18a8 8 0 0 1 4.16 7v95.64a8 8 0 0 1-4.16 7l-88 48.18a8 8 0 0 1-7.68 0l-88-48.18a8 8 0 0 1-4.16-7V80.18a8 8 0 0 1 4.16-7l88-48.18a8 8 0 0 1 7.68 0ZM128 128v104" fill="none" stroke="currentColor" stroke-linecap="round" stroke-linejoin="round"/><path fill="none" stroke="currentColor" stroke-linecap="round" stroke-linejoin="round" d="M32.03 125.73 80 152v54.84M224 125.72 176 152v54.84M83.14 47.44 128 72l44.86-24.56M33.14 76.06 128 128l94.86-51.94"/></svg>