<svg xmlns="http://www.w3.org/2000/svg" viewBox="0 0 256 256"><path fill="none" d="M0 0h256v256H0z"/><circle cx="184" cy="32" r="16" fill="none" stroke="currentColor" stroke-linecap="round" stroke-linejoin="round" stroke-width="16"/><path fill="none" stroke="currentColor" stroke-linecap="round" stroke-linejoin="round" stroke-width="16" d="m128 72 8-48 32.29 4.97M59.41 89.88C77.72 78.75 101.72 72 128 72s50.28 6.75 68.59 17.88h0a24 24 0 1 1 31.62 34.79h0A51.6 51.6 0 0 1 232 144c0 39.76-46.56 72-104 72S24 183.76 24 144a51.6 51.6 0 0 1 3.79-19.33h0a24 24 0 1 1 31.62-34.79Z"/><circle cx="88" cy="128" r="16"/><circle cx="168" cy="128" r="16"/><path d="M160 176a68 68 0 0 1-64 0" fill="none" stroke="currentColor" stroke-linecap="round" stroke-linejoin="round" stroke-width="16"/></svg>